PathFileType	4	(X/Y/Z)	C:/Users/opensim2020/Desktop/walking_exp_matlab/subject03_walking07_straight_02.trc	
DataRate	CameraRate	NumFrames	NumMarkers	Units	OrigDataRate	OrigDataStartFrame	OrigNumFrames	
100.00	100.00	4	46	mm	100.00	1656	252	
Frame#	Time	LFHD			RFHD			LBHD			RBHD			C7			T10			CLAV			STRN			RBAK			LSHO			LUPA			LELB			LFRM			LWRA			LWRB			LFIN			RSHO			RUPA			RELB			RFRM			RWRA			RWRB			RFIN			LASI			RASI			LPSI			RPSI			LTHI			LKNE			LTIB			LANK			LHEE			LTOE			RTHI			RKNE			RTIB			RANK			RHEE			RTOE			*39			*40			*41			*42			*43			*44			*45			
		X1	Y1	Z1	X2	Y2	Z2	X3	Y3	Z3	X4	Y4	Z4	X5	Y5	Z5	X6	Y6	Z6	X7	Y7	Z7	X8	Y8	Z8	X9	Y9	Z9	X10	Y10	Z10	X11	Y11	Z11	X12	Y12	Z12	X13	Y13	Z13	X14	Y14	Z14	X15	Y15	Z15	X16	Y16	Z16	X17	Y17	Z17	X18	Y18	Z18	X19	Y19	Z19	X20	Y20	Z20	X21	Y21	Z21	X22	Y22	Z22	X23	Y23	Z23	X24	Y24	Z24	X25	Y25	Z25	X26	Y26	Z26	X27	Y27	Z27	X28	Y28	Z28	X29	Y29	Z29	X30	Y30	Z30	X31	Y31	Z31	X32	Y32	Z32	X33	Y33	Z33	X34	Y34	Z34	X35	Y35	Z35	X36	Y36	Z36	X37	Y37	Z37	X38	Y38	Z38	X39	Y39	Z39	X40	Y40	Z40	X41	Y41	Z41	X42	Y42	Z42	X43	Y43	Z43	X44	Y44	Z44	X45	Y45	Z45	X46	Y46	Z46	

190	1.890	-951.96484	-717.00012	1601.93359	-1084.35010	-708.28778	1612.76514	-949.35071	-584.53571	1574.56921	-1079.55103	-580.82257	1584.38257	-1014.85535	-536.02966	1413.92358	-1020.12451	-498.68021	1098.50330	-1019.59125	-654.41888	1334.22473	-1018.85767	-696.33496	1169.69824	-1115.28015	-477.35577	1239.92896	-862.25378	-613.70538	1368.11499	-793.73419	-603.28326	1168.90955	-784.91437	-606.37457	1045.55237	-788.73303	-628.65918	917.12885	-821.26898	-642.39349	799.26062	-768.96222	-622.68097	804.12921	-780.65936	-633.80334	720.29315	-1177.54968	-606.28156	1363.26184	-1260.92078	-633.22595	1147.31140	-1278.74060	-668.93451	1041.43677	-1283.09485	-717.39221	913.60980	-1248.57471	-769.48169	828.85834	-1292.88232	-741.16901	816.41553	-1284.23254	-782.65753	755.01581	-913.92657	-674.50494	935.71436	-1151.01624	-661.24579	938.73578	-952.87732	-509.90472	951.96722	-1101.44434	-503.59653	967.99829	-859.21411	-705.24799	644.95740	-887.31641	-771.11859	478.73859	-891.22742	-705.43628	288.83615	-933.87988	-664.12457	85.00491	-975.91479	-621.50055	52.27322	-949.58014	-803.99829	39.10180	-1181.71082	-590.19305	643.58905	-1144.52002	-590.63605	463.42532	-1142.01135	-523.94916	282.39029	-1087.22778	-472.32678	73.52013	-1033.52112	-428.63864	44.46033	-1080.14685	-612.60968	30.84268				-993.79437	-641.27936	1676.69617															 
191	1.900	-951.18402	-726.08618	1601.03613	-1083.52393	-717.34717	1612.05994	-948.54572	-593.77112	1573.30127	-1078.88586	-590.00623	1583.31860	-1014.27917	-545.50635	1412.90991	-1019.29425	-508.09753	1097.51648	-1019.18878	-663.69897	1333.15466	-1018.94513	-705.65417	1168.68457	-1114.66345	-486.67590	1238.99597	-861.64282	-623.08923	1366.97986	-792.77716	-611.08264	1167.91089	-783.92834	-612.83777	1044.44885	-787.70551	-634.23883	915.91357	-820.48419	-647.61298	797.97357	-768.08759	-627.52509	802.89886	-779.95416	-638.47424	719.03851	-1177.08789	-615.53040	1362.35840	-1260.94666	-643.79285	1146.85156	-1278.88208	-680.67377	1041.47888	-1283.21375	-730.76483	914.25018	-1248.59546	-783.99915	830.45135	-1292.85681	-755.86725	817.42218	-1284.08606	-798.21655	756.62885	-914.22375	-684.43054	934.26965	-1151.44067	-669.64502	937.73425	-952.21008	-519.35315	951.08704	-1100.66479	-512.39734	967.25787	-858.51288	-715.10638	644.12909	-887.18347	-781.31720	478.02020	-891.46777	-725.33191	285.56442	-934.42090	-696.78381	79.65728	-976.97113	-656.25549	45.12047	-949.01801	-838.89795	39.46884	-1181.70435	-596.56580	643.09625	-1144.70630	-595.10461	462.91220	-1142.38049	-526.51819	282.27829	-1087.11560	-472.65662	74.14741	-1033.28320	-428.88599	45.44724	-1080.51550	-612.80035	30.85897				-992.92651	-650.38617	1675.50940															 
192	1.910	-950.40131	-735.22125	1600.07068	-1082.72522	-726.44891	1611.22046	-947.80914	-602.94501	1571.85815	-1078.13354	-599.16467	1582.04309	-1013.79382	-554.88983	1411.73767	-1018.32153	-517.58197	1096.44885	-1018.74512	-673.11469	1331.97791	-1018.96313	-715.02533	1167.51416	-1114.03650	-495.88986	1238.02942	-861.02454	-632.59393	1365.69409	-792.11053	-618.26306	1166.74963	-782.78931	-619.40857	1043.43311	-786.66791	-640.05664	914.61426	-819.22034	-653.20129	796.87195	-767.30292	-632.52264	801.55261	-779.28937	-643.36011	717.72028	-1176.48328	-624.92902	1361.25720	-1260.93933	-654.29993	1146.30261	-1279.03833	-692.23315	1041.32678	-1283.08459	-744.08588	914.81696	-1248.31067	-798.17578	831.70422	-1292.64697	-770.34210	818.31244	-1283.82495	-813.51599	758.14172	-914.35107	-694.40289	932.56677	-1151.46619	-678.09546	936.68951	-951.42688	-529.18811	949.83698	-1099.84436	-521.35931	966.51379	-857.78687	-724.39899	642.80542	-887.05920	-791.28784	477.02988	-891.59766	-745.02637	282.52792	-934.57764	-729.54077	74.90731	-977.22211	-690.65881	39.30370	-948.35828	-873.49231	39.84410	-1181.76624	-602.97845	642.61633	-1144.87244	-599.49158	462.46939	-1142.04321	-528.79688	282.69534	-1086.96143	-473.09436	74.79381	-1033.05530	-429.04892	46.53284	-1080.40320	-612.82568	30.70159				-991.94159	-659.18964	1674.44775															 
193	1.920	-949.63129	-744.36609	1599.02051	-1081.97217	-735.47632	1610.31067	-947.23407	-612.08765	1570.34155	-1077.31421	-608.30591	1580.72546	-1012.99152	-564.39624	1410.49548	-1017.09332	-527.08423	1095.18567	-1018.28461	-682.65741	1330.73499	-1018.89471	-724.55115	1166.24915	-1113.21582	-505.18610	1236.88049	-860.39154	-642.27515	1364.30652	-791.22125	-625.99762	1165.47327	-781.86505	-626.00305	1042.03564	-785.65564	-646.04004	913.26270	-818.28729	-658.85376	795.53162	-766.55292	-637.79852	800.20819	-778.65704	-648.48431	716.41534	-1175.90344	-634.20447	1360.12964	-1260.72827	-664.62885	1145.57092	-1278.78516	-703.77850	1041.14624	-1282.86914	-757.05627	915.22693	-1247.68579	-811.91199	832.60620	-1292.32239	-784.62177	819.06976	-1283.40759	-828.54333	759.52271	-914.37860	-704.32422	930.62744	-1151.69250	-686.46259	935.43945	-950.59222	-539.06415	948.47314	-1098.95813	-530.43488	965.70386	-857.01990	-733.02112	640.90466	-887.23468	-801.05872	475.71503	-891.61365	-764.53314	279.82663	-933.94806	-761.90039	71.44464	-977.09143	-725.04126	34.76779	-947.30469	-907.69135	40.71509	-1181.85706	-609.32104	642.16376	-1145.07605	-603.88574	462.03610	-1142.11279	-531.14966	282.94174	-1086.92334	-473.45926	75.49558	-1032.96436	-429.28107	47.53495	-1080.48010	-612.91528	30.63822				-991.66589	-667.27448	1672.80786															 
